<?xml version="1.0" encoding="UTF-8" standalone="no"?>
<!DOCTYPE svg PUBLIC "-//W3C//DTD SVG 1.1//EN" "http://www.w3.org/Graphics/SVG/1.1/DTD/svg11.dtd">
<svg width="100%" height="100%" viewBox="0 0 400 70" version="1.1" xmlns="http://www.w3.org/2000/svg" xmlns:xlink="http://www.w3.org/1999/xlink" xml:space="preserve" xmlns:serif="http://www.serif.com/" style="fill-rule:evenodd;clip-rule:evenodd;stroke-linejoin:round;stroke-miterlimit:1.41421;">
    <g id="path21" transform="matrix(0.455584,-0.000873927,0.000873927,0.455584,-1.44383,-8.99862)">
        <path d="M76,33C64.685,31.671 56.963,39.279 52,49C45.143,39.463 36.934,34.241 25.246,32.45C21.36,31.854 16.215,31.579 13.647,35.228C10.806,39.264 14.643,48.312 17.29,51.711C19.127,54.069 21.347,56.867 24.104,58.157C28.072,60.014 32.443,59.263 36,62C34.602,61.588 33.435,61.123 31.956,61.113C23.821,61.055 24.637,68.887 20.698,74C14.517,82.022 6.47,88.971 7.044,100C7.686,112.321 19.336,123.388 31,125.624C36.447,126.669 42.47,126 48,126L48,127C41.333,127.333 33.686,127.231 29.634,129.961C27.257,134.512 29.673,137.429 30.564,141C28.96,141.729 26.703,142.24 25.752,144.058C23.647,147.528 24.484,150.779 25.647,154.901C26.553,158.39 28.576,161.154 30.98,163.732C33.72,166.016 38.601,165.066 43,164.428C46.998,163.896 53.969,162.155 57.921,161.29C66.137,159.328 69.385,158.539 78,158.863C83.239,159.059 86.139,163.503 90,166.471C95.044,170.348 101.544,172.826 108,172.105C111.816,171.679 115.126,169.512 117.826,166.9C119.287,165.488 120.63,163.231 122.665,162.581C125.407,161.705 130.212,164.234 133,164.799C141.744,166.573 152.779,164.833 157,156L178.001,157.049L188,159.36C195.667,160.573 207.096,162.79 209.746,160.617C212.584,159.185 217.179,148.973 216.129,141.27C215.09,138.551 212.921,137.963 210,137C211,132.625 212.753,127.246 210.617,125.13C206.762,121.913 193,121.958 183,121C188.355,114.717 193.798,107.538 190.532,99C189.052,95.132 185.589,91.928 184.526,88C183.077,82.642 185.633,76.705 183.957,71C183.154,68.267 182.119,65.398 180.352,63.129C178.861,61.215 176.235,59.972 175.201,57.741C173.405,53.868 176.657,49.242 174.987,45C170.861,34.518 153.648,29.357 144,34C140.497,21.852 115.87,18.712 113.375,24.946C109.841,22.015 107.055,21.796 104,22.217C100.89,22.645 95.904,24.562 93.625,27.367C89.661,24.302 78.652,23.772 76,33Z" style="fill-rule:nonzero;"/>
    </g>
    <g id="path211" serif:id="path21" transform="matrix(0.455584,-0.000873927,0.000873927,0.455584,-2.51208,-9.24476)">
        <path d="M76,33C64.685,31.671 56.963,39.279 52,49C45.143,39.463 36.934,34.241 25.246,32.45C21.36,31.854 16.215,31.579 13.647,35.228C10.806,39.264 14.643,48.312 17.29,51.711C19.127,54.069 21.347,56.867 24.104,58.157C28.072,60.014 32.443,59.263 36,62C34.602,61.588 33.435,61.123 31.956,61.113C23.821,61.055 24.637,68.887 20.698,74C14.517,82.022 6.47,88.971 7.044,100C7.686,112.321 19.336,123.388 31,125.624C36.447,126.669 42.47,126 48,126L48,127C41.333,127.333 33.686,127.231 29.634,129.961C27.257,134.512 29.673,137.429 30.564,141C28.96,141.729 26.703,142.24 25.752,144.058C23.647,147.528 24.484,150.779 25.647,154.901C26.553,158.39 28.576,161.154 30.98,163.732C33.72,166.016 38.601,165.066 43,164.428C46.998,163.896 53.969,162.155 57.921,161.29C66.137,159.328 69.385,158.539 78,158.863C83.239,159.059 86.139,163.503 90,166.471C95.044,170.348 101.544,172.826 108,172.105C111.816,171.679 115.126,169.512 117.826,166.9C119.287,165.488 120.63,163.231 122.665,162.581C125.407,161.705 130.212,164.234 133,164.799C141.744,166.573 152.779,164.833 157,156L178.001,157.049L188,159.36C195.667,160.573 207.096,162.79 209.746,160.617C212.584,159.185 217.179,148.973 216.129,141.27C215.09,138.551 212.921,137.963 210,137C211,132.625 212.753,127.246 210.617,125.13C206.762,121.913 193,121.958 183,121C188.355,114.717 193.798,107.538 190.532,99C189.052,95.132 185.589,91.928 184.526,88C183.077,82.642 185.633,76.705 183.957,71C183.154,68.267 182.119,65.398 180.352,63.129C178.861,61.215 176.235,59.972 175.201,57.741C173.405,53.868 176.657,49.242 174.987,45C170.861,34.518 153.648,29.357 144,34C140.497,21.852 115.87,18.712 113.375,24.946C109.841,22.015 107.055,21.796 104,22.217C100.89,22.645 95.904,24.562 93.625,27.367C89.661,24.302 78.652,23.772 76,33Z" style="fill-rule:nonzero;"/>
    </g>
    <g id="path22" transform="matrix(0.455584,-0.000873927,0.000873927,0.455584,-1.44383,-8.99862)">
        <path d="M92,35C91.641,34.144 91.376,32.892 90.676,32.157C86.809,28.097 82.173,31.287 79.665,35.039C78.704,36.476 77.761,38.965 75.852,39.394C74.08,39.791 73.015,38.042 72,37C66.208,38.208 59.792,43.792 58,50C66.607,50.408 72.832,43.038 82,45.022C87.505,46.214 97.288,50.36 97.583,57.004C97.834,62.681 91.404,67.643 87,70.157C81.545,73.27 75.709,70.763 70,72C71.989,76.44 76.708,82.28 77.1,87C77.791,95.341 72.554,101.136 69.314,108C67.609,111.612 68.831,115.515 67.508,119.15C65.477,124.731 58.186,125.548 53,126C53.774,129.852 56.129,132.411 57.497,136C58.362,138.269 58.325,140.745 59.279,143C62.936,151.649 69.765,152.563 78,153C79.271,151.384 81.062,148.563 83.572,149.92C85.868,151.161 86.21,154.963 87.588,156.985C91.313,162.454 100.213,167.551 107,166.481C110.714,165.895 114.746,163.696 116.049,159.96C116.874,157.598 114.996,152.487 118.198,151.461C121.223,150.493 124.003,155.563 126.104,157.031C130.679,160.227 136.622,160.798 142,159.89C145.055,159.374 150.518,158.186 151.671,154.786C152.525,152.264 148.172,146.945 152.258,145.752C155.366,144.844 157.881,148.802 160.09,150.277C164.799,153.422 173.154,153.266 177.532,149.486C183.147,144.638 185.887,134.415 181.297,128.104C179.619,125.797 174.285,123.417 174.77,120.1C175.12,117.703 178.304,116.733 179.958,115.455C183.427,112.776 186.198,108.548 185.743,104C185.295,99.518 181.932,95.493 178.711,92.594C177.128,91.169 174.81,89.956 173.921,87.915C172.371,84.358 176.507,83.391 179,83C180.002,76.219 178.513,68.299 171.907,64.688C168.347,62.743 163.825,62.397 160,61C162.415,57.941 166.888,56.289 168.667,52.867C173.485,43.598 156.557,37.642 149.83,38.239C147.336,38.461 144.716,40.581 142.225,40.098C139.158,39.503 137.971,34.552 135.775,32.613C131.988,29.267 122.409,24.68 117.56,28.179C115.54,29.637 114.837,32.795 114,35C112.617,32.919 111.326,30.229 109.39,28.602C103.023,23.252 96.42,31.447 92,35Z" style="fill:white;fill-rule:nonzero;"/>
    </g>
    <g id="path221" serif:id="path22" transform="matrix(0.455584,-0.000873927,0.000873927,0.455584,-2.51208,-9.24476)">
        <path d="M92,35C91.641,34.144 91.376,32.892 90.676,32.157C86.809,28.097 82.173,31.287 79.665,35.039C78.704,36.476 77.761,38.965 75.852,39.394C74.08,39.791 73.015,38.042 72,37C66.208,38.208 59.792,43.792 58,50C66.607,50.408 72.832,43.038 82,45.022C87.505,46.214 97.288,50.36 97.583,57.004C97.834,62.681 91.404,67.643 87,70.157C81.545,73.27 75.709,70.763 70,72C71.989,76.44 76.708,82.28 77.1,87C77.791,95.341 72.554,101.136 69.314,108C67.609,111.612 68.831,115.515 67.508,119.15C65.477,124.731 58.186,125.548 53,126C53.774,129.852 56.129,132.411 57.497,136C58.362,138.269 58.325,140.745 59.279,143C62.936,151.649 69.765,152.563 78,153C79.271,151.384 81.062,148.563 83.572,149.92C85.868,151.161 86.21,154.963 87.588,156.985C91.313,162.454 100.213,167.551 107,166.481C110.714,165.895 114.746,163.696 116.049,159.96C116.874,157.598 114.996,152.487 118.198,151.461C121.223,150.493 124.003,155.563 126.104,157.031C130.679,160.227 136.622,160.798 142,159.89C145.055,159.374 150.518,158.186 151.671,154.786C152.525,152.264 148.172,146.945 152.258,145.752C155.366,144.844 157.881,148.802 160.09,150.277C164.799,153.422 173.154,153.266 177.532,149.486C183.147,144.638 185.887,134.415 181.297,128.104C179.619,125.797 174.285,123.417 174.77,120.1C175.12,117.703 178.304,116.733 179.958,115.455C183.427,112.776 186.198,108.548 185.743,104C185.295,99.518 181.932,95.493 178.711,92.594C177.128,91.169 174.81,89.956 173.921,87.915C172.371,84.358 176.507,83.391 179,83C180.002,76.219 178.513,68.299 171.907,64.688C168.347,62.743 163.825,62.397 160,61C162.415,57.941 166.888,56.289 168.667,52.867C173.485,43.598 156.557,37.642 149.83,38.239C147.336,38.461 144.716,40.581 142.225,40.098C139.158,39.503 137.971,34.552 135.775,32.613C131.988,29.267 122.409,24.68 117.56,28.179C115.54,29.637 114.837,32.795 114,35C112.617,32.919 111.326,30.229 109.39,28.602C103.023,23.252 96.42,31.447 92,35Z" style="fill:white;fill-rule:nonzero;"/>
    </g>
    <g id="path23" transform="matrix(0.455584,-0.000873927,0.000873927,0.455584,-1.44383,-8.99862)">
        <path d="M48,56C45.809,47.758 37.206,40.662 29,38.684C26.232,38.017 20.227,36.831 18.797,40.318C17.466,43.564 20.517,47.557 22.519,49.826C26.624,54.481 30.501,54.146 36,55.414C40.853,56.534 43.071,57.742 48,56Z" style="fill:rgb(230,181,199);fill-rule:nonzero;"/>
    </g>
    <g id="path231" serif:id="path23" transform="matrix(0.455584,-0.000873927,0.000873927,0.455584,-2.51208,-9.24476)">
        <path d="M48,56C45.809,47.758 37.206,40.662 29,38.684C26.232,38.017 20.227,36.831 18.797,40.318C17.466,43.564 20.517,47.557 22.519,49.826C26.624,54.481 30.501,54.146 36,55.414C40.853,56.534 43.071,57.742 48,56Z" style="fill:rgb(230,181,199);fill-rule:nonzero;"/>
    </g>
    <g id="path24" transform="matrix(0.455584,-0.000873927,0.000873927,0.455584,-1.44383,-8.99862)">
        <path d="M61,56C62.576,59.46 64.972,63.72 68.259,65.86C75.322,70.459 88.979,69.866 91.303,59.996C93.647,50.039 77.136,48.057 71,50.33C67.399,51.663 64.263,54.029 61,56Z" style="fill:rgb(230,181,199);fill-rule:nonzero;"/>
    </g>
    <g id="path241" serif:id="path24" transform="matrix(0.455584,-0.000873927,0.000873927,0.455584,-2.51208,-9.24476)">
        <path d="M61,56C62.576,59.46 64.972,63.72 68.259,65.86C75.322,70.459 88.979,69.866 91.303,59.996C93.647,50.039 77.136,48.057 71,50.33C67.399,51.663 64.263,54.029 61,56Z" style="fill:rgb(230,181,199);fill-rule:nonzero;"/>
    </g>
    <g id="path25" transform="matrix(0.455584,-0.000873927,0.000873927,0.455584,-1.44383,-8.99862)">
        <path d="M52.822,57.693L52.822,58.249C52.822,58.78 57.034,64.094 55.436,74C54.059,78.863 51.374,83.291 48.689,87.937C47.302,89.424 46.133,90.475 43.221,90.437C38.866,89.047 39.305,85.697 38,83C35.478,84.575 32.31,89.865 29.114,89.369C25.498,88.807 24.639,81.28 20.264,83.176C17.743,84.268 14.624,88.581 13.446,90.871C7.073,103.261 15.86,116.745 28.475,120.522C36.322,122.87 45.872,123.571 53.778,121.838C56.536,121.234 59.886,121.301 62.377,119.03C65.818,116.252 65.019,109.01 66.829,105.35C69.5,99.951 73.013,96.405 73.339,90C73.542,86.009 70.332,83.271 68.557,80C64.39,72.318 60.338,63.05 52.822,57.693Z" style="fill:rgb(230,181,199);fill-rule:nonzero;"/>
    </g>
    <g id="path251" serif:id="path25" transform="matrix(0.455584,-0.000873927,0.000873927,0.455584,-2.51208,-9.24476)">
        <path d="M52.822,57.693L52.822,58.249C52.822,58.78 57.034,64.094 55.436,74C54.059,78.863 51.374,83.291 48.689,87.937C47.302,89.424 46.133,90.475 43.221,90.437C38.866,89.047 39.305,85.697 38,83C35.478,84.575 32.31,89.865 29.114,89.369C25.498,88.807 24.639,81.28 20.264,83.176C17.743,84.268 14.624,88.581 13.446,90.871C7.073,103.261 15.86,116.745 28.475,120.522C36.322,122.87 45.872,123.571 53.778,121.838C56.536,121.234 59.886,121.301 62.377,119.03C65.818,116.252 65.019,109.01 66.829,105.35C69.5,99.951 73.013,96.405 73.339,90C73.542,86.009 70.332,83.271 68.557,80C64.39,72.318 60.338,63.05 52.822,57.693Z" style="fill:rgb(230,181,199);fill-rule:nonzero;"/>
    </g>
    <g id="path26" transform="matrix(0.455584,-0.000873927,0.000873927,0.455584,-1.44383,-8.99862)">
        <path d="M41,81L42,81C44.656,79.191 45.693,79.874 48,82C51.565,78.157 52.596,72.668 51.446,68.443C46.356,60.808 41.907,68.857 41.069,73C40.51,75.767 40.514,78.263 41,81Z" style="fill:white;fill-rule:nonzero;"/>
    </g>
    <g id="path261" serif:id="path26" transform="matrix(0.455584,-0.000873927,0.000873927,0.455584,-2.51208,-9.24476)">
        <path d="M41,81L42,81C44.656,79.191 45.693,79.874 48,82C51.565,78.157 52.596,72.668 51.446,68.443C46.356,60.808 41.907,68.857 41.069,73C40.51,75.767 40.514,78.263 41,81Z" style="fill:white;fill-rule:nonzero;"/>
    </g>
    <g id="path27" transform="matrix(0.455584,-0.000873927,0.000873927,0.455584,-1.44383,-8.99862)">
        <path d="M26,80L27,80C29.656,78.19 30.693,78.874 33,81C34.562,77.757 39.592,64.386 32.003,64.832C26.111,65.178 26.034,75.921 26,80Z" style="fill:white;fill-rule:nonzero;"/>
    </g>
    <g id="path271" serif:id="path27" transform="matrix(0.455584,-0.000873927,0.000873927,0.455584,-2.51208,-9.24476)">
        <path d="M26,80L27,80C29.656,78.19 30.693,78.874 33,81C34.562,77.757 39.592,64.386 32.003,64.832C26.111,65.178 26.034,75.921 26,80Z" style="fill:white;fill-rule:nonzero;"/>
    </g>
    <g id="path28" transform="matrix(0.455584,-0.000873927,0.000873927,0.455584,-1.44383,-8.99862)">
        <path d="M183.613,124.373C185.827,126.831 186.41,129.163 187.244,132.373L207.143,135.976C207.8,134.422 209.95,129.645 207.997,127.502C204.426,125.079 191.072,125.165 183.613,124.373Z" style="fill:rgb(230,181,199);fill-rule:nonzero;"/>
    </g>
    <g id="path281" serif:id="path28" transform="matrix(0.455584,-0.000873927,0.000873927,0.455584,-2.51208,-9.24476)">
        <path d="M183.613,124.373C185.827,126.831 186.41,129.163 187.244,132.373L207.143,135.976C207.8,134.422 209.95,129.645 207.997,127.502C204.426,125.079 191.072,125.165 183.613,124.373Z" style="fill:rgb(230,181,199);fill-rule:nonzero;"/>
    </g>
    <g id="path29" transform="matrix(0.455584,-0.000873927,0.000873927,0.455584,-1.44383,-8.99862)">
        <path d="M31.673,131.98C30.103,134.914 32.27,136.411 33.355,139.783C41.435,138.864 48.7,137.231 54,137L50.732,129.327C43.399,129.993 34.105,129.026 31.673,131.98Z" style="fill:rgb(230,181,199);fill-rule:nonzero;"/>
    </g>
    <g id="path291" serif:id="path29" transform="matrix(0.455584,-0.000873927,0.000873927,0.455584,-2.51208,-9.24476)">
        <path d="M31.673,131.98C30.103,134.914 32.27,136.411 33.355,139.783C41.435,138.864 48.7,137.231 54,137L50.732,129.327C43.399,129.993 34.105,129.026 31.673,131.98Z" style="fill:rgb(230,181,199);fill-rule:nonzero;"/>
    </g>
    <g id="path30" transform="matrix(0.455584,-0.000873927,0.000873927,0.455584,-1.44383,-8.99862)">
        <path d="M187.62,135.498C188.841,141.122 184.545,148 178.742,153.247C187.658,155.938 203.599,159.507 207.248,158.311C210.837,156.763 215.177,145.432 213.247,142.004C210.307,138.999 195.954,137.123 187.62,135.498Z" style="fill:rgb(230,181,199);fill-rule:nonzero;"/>
    </g>
    <g id="path301" serif:id="path30" transform="matrix(0.455584,-0.000873927,0.000873927,0.455584,-2.51208,-9.24476)">
        <path d="M187.62,135.498C188.841,141.122 184.545,148 178.742,153.247C187.658,155.938 203.599,159.507 207.248,158.311C210.837,156.763 215.177,145.432 213.247,142.004C210.307,138.999 195.954,137.123 187.62,135.498Z" style="fill:rgb(230,181,199);fill-rule:nonzero;"/>
    </g>
    <g id="path31" transform="matrix(0.455584,-0.000873927,0.000873927,0.455584,-1.44383,-8.99862)">
        <path d="M27.654,145.654C26.003,149.357 28.037,159.115 33.023,161.933C43.433,163.018 55.352,158.691 65.762,156C59.985,151.836 55.5,147.395 55,140.327C45.667,141.993 33.066,141.7 27.654,145.654Z" style="fill:rgb(230,181,199);fill-rule:nonzero;"/>
    </g>
    <g id="path311" serif:id="path31" transform="matrix(0.455584,-0.000873927,0.000873927,0.455584,-2.51208,-9.24476)">
        <path d="M27.654,145.654C26.003,149.357 28.037,159.115 33.023,161.933C43.433,163.018 55.352,158.691 65.762,156C59.985,151.836 55.5,147.395 55,140.327C45.667,141.993 33.066,141.7 27.654,145.654Z" style="fill:rgb(230,181,199);fill-rule:nonzero;"/>
    </g>
    <g id="path4" transform="matrix(5.42124,-0.0103993,0.0103993,5.42124,109.875,7.67435)">
        <path d="M6.172,8.969L5.563,8.969L4.623,3.734L1.828,8.969L1.219,8.969L0,0.266L1.547,0.266L2.203,5.469L4.922,0.266L5.578,0.266L6.383,5.438L8.891,0.266L10.547,0.266L6.172,8.969Z" style="fill-rule:nonzero;"/>
    </g>
    <g id="path41" serif:id="path4" transform="matrix(5.42124,-0.0103993,0.0103993,5.42124,108.807,7.42821)">
        <path d="M6.172,8.969L5.563,8.969L4.623,3.734L1.828,8.969L1.219,8.969L0,0.266L1.547,0.266L2.203,5.469L4.922,0.266L5.578,0.266L6.383,5.438L8.891,0.266L10.547,0.266L6.172,8.969Z" style="fill-rule:nonzero;"/>
    </g>
    <g id="path5" transform="matrix(5.42124,-0.0103993,0.0103993,5.42124,109.875,7.67435)">
        <path d="M9.627,6.5C9.627,5.366 9.973,4.409 10.664,3.627C11.355,2.845 12.23,2.454 13.289,2.454C14.098,2.454 14.721,2.664 15.158,3.084C15.596,3.505 15.814,4.102 15.814,4.876C15.814,6.033 15.472,7.005 14.789,7.791C14.106,8.577 13.223,8.97 12.141,8.97C11.348,8.97 10.731,8.758 10.289,8.334C9.847,7.91 9.627,7.297 9.627,6.5ZM11.158,6.427C11.158,7.32 11.542,7.765 12.308,7.765C12.915,7.765 13.397,7.483 13.751,6.92C14.105,6.357 14.282,5.69 14.282,4.918C14.282,4.076 13.898,3.655 13.132,3.655C12.536,3.655 12.058,3.933 11.697,4.488C11.336,5.043 11.157,5.69 11.157,6.426L11.158,6.427Z" style="fill-rule:nonzero;"/>
    </g>
    <g id="path51" serif:id="path5" transform="matrix(5.42124,-0.0103993,0.0103993,5.42124,108.807,7.42821)">
        <path d="M9.627,6.5C9.627,5.366 9.973,4.409 10.664,3.627C11.355,2.845 12.23,2.454 13.289,2.454C14.098,2.454 14.721,2.664 15.158,3.084C15.596,3.505 15.814,4.102 15.814,4.876C15.814,6.033 15.472,7.005 14.789,7.791C14.106,8.577 13.223,8.97 12.141,8.97C11.348,8.97 10.731,8.758 10.289,8.334C9.847,7.91 9.627,7.297 9.627,6.5ZM11.158,6.427C11.158,7.32 11.542,7.765 12.308,7.765C12.915,7.765 13.397,7.483 13.751,6.92C14.105,6.357 14.282,5.69 14.282,4.918C14.282,4.076 13.898,3.655 13.132,3.655C12.536,3.655 12.058,3.933 11.697,4.488C11.336,5.043 11.157,5.69 11.157,6.426L11.158,6.427Z" style="fill-rule:nonzero;"/>
    </g>
    <g id="path6" transform="matrix(5.42124,-0.0103993,0.0103993,5.42124,109.875,7.67435)">
        <path d="M21.135,4.059C20.787,3.801 20.481,3.672 20.216,3.672C19.838,3.672 19.491,3.837 19.176,4.167C18.862,4.497 18.664,4.875 18.582,5.301L17.92,8.844L16.449,8.844L17.621,2.563L19.091,2.563L18.99,3.109C19.51,2.671 20.084,2.453 20.713,2.453C20.873,2.453 21.16,2.49 21.574,2.564L21.135,4.058L21.135,4.059Z" style="fill-rule:nonzero;"/>
    </g>
    <g id="path61" serif:id="path6" transform="matrix(5.42124,-0.0103993,0.0103993,5.42124,108.807,7.42821)">
        <path d="M21.135,4.059C20.787,3.801 20.481,3.672 20.216,3.672C19.838,3.672 19.491,3.837 19.176,4.167C18.862,4.497 18.664,4.875 18.582,5.301L17.92,8.844L16.449,8.844L17.621,2.563L19.091,2.563L18.99,3.109C19.51,2.671 20.084,2.453 20.713,2.453C20.873,2.453 21.16,2.49 21.574,2.564L21.135,4.058L21.135,4.059Z" style="fill-rule:nonzero;"/>
    </g>
    <g id="path7" transform="matrix(5.42124,-0.0103993,0.0103993,5.42124,109.875,7.67435)">
        <path d="M25.873,8.844L23.894,6.263L23.652,6.469L23.234,8.844L21.763,8.844L23.295,0L24.75,0L23.989,4.656L25.09,3.692C25.84,3.034 26.337,2.532 26.582,2.187L27.607,3.072C27.435,3.283 26.574,4.077 25.023,5.452L27.607,8.844L25.873,8.844Z" style="fill-rule:nonzero;"/>
    </g>
    <g id="path71" serif:id="path7" transform="matrix(5.42124,-0.0103993,0.0103993,5.42124,108.807,7.42821)">
        <path d="M25.873,8.844L23.894,6.263L23.652,6.469L23.234,8.844L21.763,8.844L23.295,0L24.75,0L23.989,4.656L25.09,3.692C25.84,3.034 26.337,2.532 26.582,2.187L27.607,3.072C27.435,3.283 26.574,4.077 25.023,5.452L27.607,8.844L25.873,8.844Z" style="fill-rule:nonzero;"/>
    </g>
    <g id="path8" transform="matrix(5.42124,-0.0103993,0.0103993,5.42124,109.875,7.67435)">
        <path d="M32.971,4.059C32.623,3.801 32.317,3.672 32.052,3.672C31.674,3.672 31.327,3.837 31.012,4.167C30.697,4.497 30.5,4.875 30.417,5.3L29.755,8.843L28.284,8.843L29.456,2.562L30.926,2.562L30.825,3.109C31.345,2.671 31.919,2.453 32.548,2.453C32.708,2.453 32.995,2.49 33.409,2.564L32.97,4.058L32.971,4.059Z" style="fill:rgb(251,15,12);fill-rule:nonzero;"/>
    </g>
    <g id="path81" serif:id="path8" transform="matrix(5.42124,-0.0103993,0.0103993,5.42124,108.807,7.42821)">
        <path d="M32.971,4.059C32.623,3.801 32.317,3.672 32.052,3.672C31.674,3.672 31.327,3.837 31.012,4.167C30.697,4.497 30.5,4.875 30.417,5.3L29.755,8.843L28.284,8.843L29.456,2.562L30.926,2.562L30.825,3.109C31.345,2.671 31.919,2.453 32.548,2.453C32.708,2.453 32.995,2.49 33.409,2.564L32.97,4.058L32.971,4.059Z" style="fill:rgb(251,15,12);fill-rule:nonzero;"/>
    </g>
    <g id="path9" transform="matrix(5.42124,-0.0103993,0.0103993,5.42124,109.875,7.67435)">
        <path d="M39.021,6.594C38.994,6.739 38.98,6.899 38.98,7.074C38.98,7.933 39.045,8.523 39.177,8.843L38.258,8.843C37.984,8.843 37.779,8.635 37.646,8.218C37.149,8.718 36.53,8.968 35.788,8.968C35.112,8.968 34.589,8.777 34.218,8.393C33.847,8.01 33.662,7.476 33.662,6.792C33.662,5.6 34.022,4.578 34.742,3.728C35.462,2.877 36.37,2.452 37.467,2.452C38.525,2.452 39.288,2.55 39.756,2.745L39.022,6.593L39.021,6.594ZM37.335,3.656C36.684,3.656 36.163,3.969 35.775,4.594C35.387,5.22 35.193,5.94 35.193,6.754C35.193,7.428 35.522,7.765 36.179,7.765C36.596,7.765 36.961,7.506 37.273,6.988C37.584,6.47 37.865,5.398 38.115,3.773C37.84,3.695 37.579,3.656 37.335,3.656Z" style="fill:rgb(251,15,12);fill-rule:nonzero;"/>
    </g>
    <g id="path91" serif:id="path9" transform="matrix(5.42124,-0.0103993,0.0103993,5.42124,108.807,7.42821)">
        <path d="M39.021,6.594C38.994,6.739 38.98,6.899 38.98,7.074C38.98,7.933 39.045,8.523 39.177,8.843L38.258,8.843C37.984,8.843 37.779,8.635 37.646,8.218C37.149,8.718 36.53,8.968 35.788,8.968C35.112,8.968 34.589,8.777 34.218,8.393C33.847,8.01 33.662,7.476 33.662,6.792C33.662,5.6 34.022,4.578 34.742,3.728C35.462,2.877 36.37,2.452 37.467,2.452C38.525,2.452 39.288,2.55 39.756,2.745L39.022,6.593L39.021,6.594ZM37.335,3.656C36.684,3.656 36.163,3.969 35.775,4.594C35.387,5.22 35.193,5.94 35.193,6.754C35.193,7.428 35.522,7.765 36.179,7.765C36.596,7.765 36.961,7.506 37.273,6.988C37.584,6.47 37.865,5.398 38.115,3.773C37.84,3.695 37.579,3.656 37.335,3.656Z" style="fill:rgb(251,15,12);fill-rule:nonzero;"/>
    </g>
    <g id="path10" transform="matrix(5.42124,-0.0103993,0.0103993,5.42124,109.875,7.67435)">
        <path d="M43.354,8.969L42.823,8.969L40.9,2.563L42.431,2.563L43.487,6.379L45.697,2.563L47.4,2.563L43.353,8.969L43.354,8.969Z" style="fill:rgb(251,15,12);fill-rule:nonzero;"/>
    </g>
    <g id="path101" serif:id="path10" transform="matrix(5.42124,-0.0103993,0.0103993,5.42124,108.807,7.42821)">
        <path d="M43.354,8.969L42.823,8.969L40.9,2.563L42.431,2.563L43.487,6.379L45.697,2.563L47.4,2.563L43.353,8.969L43.354,8.969Z" style="fill:rgb(251,15,12);fill-rule:nonzero;"/>
    </g>
    <g id="path11" transform="matrix(5.42124,-0.0103993,0.0103993,5.42124,109.875,7.67435)">
        <path d="M48.996,6.127C48.988,6.229 48.984,6.316 48.984,6.391C48.984,6.829 49.114,7.164 49.374,7.399C49.633,7.633 49.993,7.751 50.454,7.751C50.7,7.751 50.983,7.684 51.303,7.549C51.623,7.414 51.875,7.263 52.058,7.095L51.888,8.636C51.391,8.859 50.785,8.97 50.069,8.97C49.295,8.97 48.667,8.726 48.186,8.237C47.705,7.748 47.464,7.078 47.464,6.225C47.464,5.146 47.811,4.247 48.504,3.53C49.198,2.813 50.106,2.454 51.227,2.454C51.887,2.454 52.423,2.594 52.833,2.873C53.243,3.153 53.448,3.553 53.448,4.073C53.448,4.781 53.142,5.337 52.532,5.74C51.922,6.142 51.17,6.344 50.276,6.344C49.839,6.344 49.412,6.272 48.995,6.127L48.996,6.127ZM49.277,5.014C49.53,5.088 49.805,5.125 50.101,5.125C50.631,5.125 51.08,5.044 51.446,4.882C51.812,4.72 51.996,4.486 51.996,4.182C51.996,3.842 51.626,3.672 50.885,3.672C50.593,3.672 50.295,3.8 49.99,4.056C49.685,4.312 49.448,4.631 49.277,5.014Z" style="fill:rgb(251,15,12);fill-rule:nonzero;"/>
    </g>
    <g id="path111" serif:id="path11" transform="matrix(5.42124,-0.0103993,0.0103993,5.42124,108.807,7.42821)">
        <path d="M48.996,6.127C48.988,6.229 48.984,6.316 48.984,6.391C48.984,6.829 49.114,7.164 49.374,7.399C49.633,7.633 49.993,7.751 50.454,7.751C50.7,7.751 50.983,7.684 51.303,7.549C51.623,7.414 51.875,7.263 52.058,7.095L51.888,8.636C51.391,8.859 50.785,8.97 50.069,8.97C49.295,8.97 48.667,8.726 48.186,8.237C47.705,7.748 47.464,7.078 47.464,6.225C47.464,5.146 47.811,4.247 48.504,3.53C49.198,2.813 50.106,2.454 51.227,2.454C51.887,2.454 52.423,2.594 52.833,2.873C53.243,3.153 53.448,3.553 53.448,4.073C53.448,4.781 53.142,5.337 52.532,5.74C51.922,6.142 51.17,6.344 50.276,6.344C49.839,6.344 49.412,6.272 48.995,6.127L48.996,6.127ZM49.277,5.014C49.53,5.088 49.805,5.125 50.101,5.125C50.631,5.125 51.08,5.044 51.446,4.882C51.812,4.72 51.996,4.486 51.996,4.182C51.996,3.842 51.626,3.672 50.885,3.672C50.593,3.672 50.295,3.8 49.99,4.056C49.685,4.312 49.448,4.631 49.277,5.014Z" style="fill:rgb(251,15,12);fill-rule:nonzero;"/>
    </g>
</svg>
